<svg xmlns="http://www.w3.org/2000/svg" style="display: none;">
<symbol id="home" viewBox="0 0 50 50">
    <path fill="#fff" d="
  M 34.98 8.08
  L 35.01 6.74
  Q 35.03 6.00 35.77 6.00
  L 40.25 6.00
  Q 41.00 6.00 41.00 6.75
  L 41.00 12.74
  A 1.07 1.07 0.0 0 0 41.41 13.58
  L 48.84 19.39
  A 0.70 0.69 41.6 0 1 48.91 20.43
  L 48.43 20.91
  A 0.60 0.60 0.0 0 1 47.61 20.94
  L 46.84 20.28
  Q 46.00 19.55 46.00 20.66
  L 46.00 45.62
  A 1.38 1.37 90.0 0 1 44.63 47.00
  L 5.50 47.00
  A 1.50 1.50 0.0 0 1 4.00 45.50
  L 4.00 20.46
  A 0.45 0.44 -29.8 0 0 3.17 20.24
  Q 2.58 21.22 1.49 20.79
  A 0.87 0.86 -53.3 0 1 1.28 19.30
  L 24.55 1.14
  Q 25.02 0.78 25.49 1.14
  L 34.56 8.27
  A 0.26 0.26 0.0 0 0 34.98 8.08
  Z
  M 44.00 18.49
  A 0.68 0.68 0.0 0 0 43.74 17.96
  L 25.45 3.62
  A 0.68 0.68 0.0 0 0 24.61 3.62
  L 6.26 17.97
  A 0.68 0.68 0.0 0 0 6.00 18.50
  L 6.00 44.32
  A 0.68 0.68 0.0 0 0 6.68 45.00
  L 17.32 45.00
  A 0.68 0.68 0.0 0 0 18.00 44.32
  L 18.00 26.68
  A 0.68 0.68 0.0 0 1 18.68 26.00
  L 31.32 26.00
  A 0.68 0.68 0.0 0 1 32.00 26.68
  L 32.00 44.32
  A 0.68 0.68 0.0 0 0 32.68 45.00
  L 43.32 45.00
  A 0.68 0.68 0.0 0 0 44.00 44.32
  L 44.00 18.49
  Z
  M 38.47 7.93
  L 37.12 8.20
  A 0.29 0.29 0.0 0 0 36.89 8.54
  L 36.96 8.87
  A 2.73 0.72 78.6 0 0 38.21 11.41
  L 38.72 11.31
  A 2.73 0.72 78.6 0 0 38.88 8.49
  L 38.82 8.15
  A 0.29 0.29 0.0 0 0 38.47 7.93
  Z
  M 29.9862 28.5813
  A 0.59 0.59 0.0 0 0 29.3952 27.9923
  L 20.5752 28.0077
  A 0.59 0.59 0.0 0 0 19.9862 28.5987
  L 20.0138 44.4187
  A 0.59 0.59 0.0 0 0 20.6048 45.0077
  L 29.4248 44.9923
  A 0.59 0.59 0.0 0 0 30.0138 44.4013
  L 29.9862 28.5813
  Z"
/>
</symbol>
<symbol id="about" viewBox="0 0 50 50">
    <path fill="#fff" d="
  M 33.08 33.85
  C 38.51 35.65 46.13 38.62 45.90 45.40
  Q 45.88 46.00 45.28 46.00
  L 6.71 46.00
  Q 6.03 46.00 6.04 45.32
  C 6.21 34.81 20.37 36.74 20.34 30.63
  C 20.33 28.68 18.81 26.80 18.19 24.67
  Q 18.04 24.16 17.64 23.79
  Q 15.39 21.65 16.65 18.65
  Q 16.84 18.20 16.74 17.72
  C 14.95 9.15 18.75 0.64 28.99 4.06
  Q 38.76 7.33 35.19 17.47
  A 1.11 1.09 42.8 0 0 35.23 18.30
  Q 36.74 21.53 34.24 23.98
  Q 33.84 24.37 33.72 24.91
  C 33.03 28.28 30.97 29.21 32.38 33.16
  Q 32.56 33.68 33.08 33.85
  Z
  M 33.03 17.81
  Q 36.84 8.25 27.88 5.76
  C 19.03 3.30 17.07 11.18 18.94 18.04
  A 1.14 1.11 56.1 0 1 18.76 19.02
  Q 17.31 21.00 19.34 22.43
  Q 19.77 22.73 19.88 23.25
  C 20.40 25.81 22.15 27.38 22.38 29.60
  C 23.25 38.25 11.23 35.98 8.32 43.32
  A 0.50 0.50 0.0 0 0 8.78 44.00
  L 43.03 44.00
  Q 43.66 44.00 43.55 43.38
  C 42.23 36.04 29.24 38.90 29.68 29.87
  C 29.79 27.59 31.53 25.90 32.09 23.35
  Q 32.21 22.81 32.64 22.48
  Q 34.66 20.91 33.14 18.77
  A 1.03 1.03 0.0 0 1 33.03 17.81
  Z"
/>
</symbol>
<symbol id="resume" viewBox="0 0 50 50">
    <path fill="#fff" d="
  M 43.00 47.29
  A 0.71 0.71 0.0 0 1 42.29 48.00
  L 7.71 48.00
  A 0.71 0.71 0.0 0 1 7.00 47.29
  L 7.00 2.71
  A 0.71 0.71 0.0 0 1 7.71 2.00
  L 42.29 2.00
  A 0.71 0.71 0.0 0 1 43.00 2.71
  L 43.00 47.29
  Z
  M 41.00 4.69
  A 0.69 0.69 0.0 0 0 40.31 4.00
  L 9.69 4.00
  A 0.69 0.69 0.0 0 0 9.00 4.69
  L 9.00 45.31
  A 0.69 0.69 0.0 0 0 9.69 46.00
  L 40.31 46.00
  A 0.69 0.69 0.0 0 0 41.00 45.31
  L 41.00 4.69
  Z"
/>
<path fill="#fff" d="
  M 16.41 14.22
  Q 14.77 11.84 15.46 9.06
  Q 15.58 8.59 16.02 8.38
  Q 17.71 7.56 19.13 8.84
  Q 19.47 9.14 19.50 9.60
  Q 19.72 12.20 18.48 14.51
  A 0.58 0.58 0.0 0 0 18.71 15.29
  L 21.60 16.93
  A 0.57 0.57 0.0 0 1 21.32 18.00
  L 13.80 18.00
  A 0.66 0.66 0.0 0 1 13.47 16.77
  L 16.18 15.23
  A 0.71 0.71 0.0 0 0 16.41 14.22
  Z"
/>
<rect fill="#fff" x="-5.07" y="-0.99" transform="translate(31.92,11.00) rotate(0.1)" width="10.14" height="1.98" rx="0.96"/>
<rect fill="#fff" x="26.83" y="15.01" width="10.16" height="1.96" rx="0.95"/>
<rect fill="#fff" x="-7.95" y="-0.97" transform="translate(20.96,26.02) rotate(0.2)" width="15.90" height="1.94" rx="0.94"/>
<rect fill="#fff" x="-2.47" y="-0.73" transform="translate(34.30,26.00) rotate(0.1)" width="4.94" height="1.46" rx="0.68"/>
<rect fill="#fff" x="-6.34" y="-0.96" transform="translate(19.36,31.99) rotate(-0.3)" width="12.68" height="1.92" rx="0.93"/>
<ellipse fill="#fff" cx="0.00" cy="0.00" transform="translate(34.40,32.00) rotate(0.2)" rx="2.64" ry="0.84"/>
<rect fill="#fff" x="-7.94" y="-0.98" transform="translate(20.95,38.00) rotate(0.1)" width="15.88" height="1.96" rx="0.96"/>
<ellipse fill="#fff" cx="0.00" cy="0.00" transform="translate(34.26,38.01) rotate(1.3)" rx="2.60" ry="0.82"/>
</symbol>
<symbol id="portfolio" viewBox="0 0 50 50">
    <path fill="#fff" d="
  M 50.00 18.08
  L 50.00 42.05
  Q 50.00 44.25 49.21 46.02
  A 0.91 0.90 9.8 0 1 48.45 46.55
  C 33.72 47.49 18.76 47.00 4.00 46.99
  Q 0.65 46.99 0.00 44.19
  L 0.00 11.95
  C 0.78 7.40 11.41 9.04 16.33 8.96
  Q 16.89 8.95 16.93 8.39
  L 17.16 5.28
  A 2.52 2.51 -87.4 0 1 19.72 2.94
  L 30.76 3.14
  Q 31.48 3.16 31.92 3.73
  Q 33.07 5.25 32.73 7.17
  A 1.46 1.46 0.0 0 0 34.13 8.88
  L 48.33 9.31
  A 1.40 1.40 0.0 0 1 49.69 10.66
  L 50.00 18.08
  Z
  M 30.96 6.11
  A 1.10 1.10 0.0 0 0 29.86 5.01
  L 20.06 5.01
  A 1.10 1.10 0.0 0 0 18.96 6.11
  L 18.96 7.91
  A 1.10 1.10 0.0 0 0 20.06 9.01
  L 29.86 9.01
  A 1.10 1.10 0.0 0 0 30.96 7.91
  L 30.96 6.11
  Z
  M 47.99 12.23
  A 1.23 1.23 0.0 0 0 46.76 11.00
  L 3.22 11.00
  A 1.23 1.23 0.0 0 0 1.99 12.23
  L 1.99 26.77
  A 1.23 1.23 0.0 0 0 3.22 28.00
  L 46.76 28.00
  A 1.23 1.23 0.0 0 0 47.99 26.77
  L 47.99 12.23
  Z
  M 47.98 31.07
  A 1.07 1.07 0.0 0 0 46.91 30.00
  L 3.07 30.00
  A 1.07 1.07 0.0 0 0 2.00 31.07
  L 2.00 43.95
  A 1.07 1.07 0.0 0 0 3.07 45.02
  L 46.91 45.02
  A 1.07 1.07 0.0 0 0 47.98 43.95
  L 47.98 31.07
  Z"
/>
<circle fill="#fff" cx="24.98" cy="23.95" r="1.86"/>
</symbol>
<symbol id="contact" viewBox="0 0 50 50">
    <path fill="#fff" d="
  M 50.00 7.01
  L 50.00 42.81
  L 0.00 42.91
  L 0.00 7.03
  L 50.00 7.01
  Z
  M 2.22 11.59
  C 8.50 17.39 15.04 22.94 21.46 28.56
  C 24.19 30.96 26.67 30.07 29.27 27.82
  Q 38.52 19.79 47.77 11.72
  A 1.55 1.55 0.0 0 0 46.75 9.00
  L 3.24 9.00
  A 1.50 1.49 -23.5 0 0 2.22 11.59
  Z
  M 2.63 14.71
  A 0.32 0.32 0.0 0 0 2.10 14.95
  L 1.89 35.42
  A 0.32 0.32 0.0 0 0 2.41 35.67
  L 14.85 25.57
  A 0.32 0.32 0.0 0 0 14.86 25.07
  L 2.63 14.71
  Z
  M 46.65 35.03
  Q 47.04 35.49 47.52 35.77
  A 0.32 0.32 0.0 0 0 48.00 35.49
  L 48.00 15.28
  Q 48.00 14.19 47.18 14.90
  L 35.41 25.14
  A 0.59 0.58 43.5 0 0 35.44 26.04
  L 45.92 34.31
  Q 46.33 34.63 46.65 35.03
  Z
  M 32.72 27.44
  C 27.29 33.08 23.07 33.58 17.51 27.58
  A 1.13 1.13 0.0 0 0 15.98 27.46
  L 2.30 38.28
  A 1.52 1.52 0.0 0 0 3.24 41.00
  L 46.76 41.00
  A 1.55 1.55 0.0 0 0 47.72 38.24
  L 33.92 27.36
  A 0.90 0.90 0.0 0 0 32.72 27.44
  Z"
/>
</symbol>
<symbol id="facebook" viewBox="0 0 50 50"><svg xmlns="http://www.w3.org/2000/svg" x="0px" y="0px" width="50" height="50" viewBox="0,0,256,256"
style="fill:#000000;">
<g fill="#ffffff" fill-rule="nonzero" stroke="none" stroke-width="1" stroke-linecap="butt" stroke-linejoin="miter" stroke-miterlimit="10" stroke-dasharray="" stroke-dashoffset="0" font-family="none" font-weight="none" font-size="none" text-anchor="none" style="mix-blend-mode: normal"><g transform="scale(5.12,5.12)"><path d="M41,4h-32c-2.76,0 -5,2.24 -5,5v32c0,2.76 2.24,5 5,5h32c2.76,0 5,-2.24 5,-5v-32c0,-2.76 -2.24,-5 -5,-5zM37,19h-2c-2.14,0 -3,0.5 -3,2v3h5l-1,5h-4v15h-5v-15h-4v-5h4v-3c0,-4 2,-7 6,-7c2.9,0 4,1 4,1z"></path></g></g>
</svg></symbol>
<symbol id="instagram" viewBox="0 0 50 50"><svg xmlns="http://www.w3.org/2000/svg" x="0px" y="0px" width="50" height="50" viewBox="0,0,256,256"
style="fill:#000000;">
<g fill="#ffffff" fill-rule="nonzero" stroke="none" stroke-width="1" stroke-linecap="butt" stroke-linejoin="miter" stroke-miterlimit="10" stroke-dasharray="" stroke-dashoffset="0" font-family="none" font-weight="none" font-size="none" text-anchor="none" style="mix-blend-mode: normal"><g transform="scale(5.12,5.12)"><path d="M16,3c-7.17,0 -13,5.83 -13,13v18c0,7.17 5.83,13 13,13h18c7.17,0 13,-5.83 13,-13v-18c0,-7.17 -5.83,-13 -13,-13zM37,11c1.1,0 2,0.9 2,2c0,1.1 -0.9,2 -2,2c-1.1,0 -2,-0.9 -2,-2c0,-1.1 0.9,-2 2,-2zM25,14c6.07,0 11,4.93 11,11c0,6.07 -4.93,11 -11,11c-6.07,0 -11,-4.93 -11,-11c0,-6.07 4.93,-11 11,-11zM25,16c-4.96,0 -9,4.04 -9,9c0,4.96 4.04,9 9,9c4.96,0 9,-4.04 9,-9c0,-4.96 -4.04,-9 -9,-9z"></path></g></g>
</svg></symbol>
<symbol id="telegram" viewBox="0 0 50 50"><svg xmlns="http://www.w3.org/2000/svg" x="0px" y="0px" width="50" height="50" viewBox="0,0,256,256"
style="fill:#000000;">
<g fill="#ffffff" fill-rule="nonzero" stroke="none" stroke-width="1" stroke-linecap="butt" stroke-linejoin="miter" stroke-miterlimit="10" stroke-dasharray="" stroke-dashoffset="0" font-family="none" font-weight="none" font-size="none" text-anchor="none" style="mix-blend-mode: normal"><g transform="scale(5.12,5.12)"><path d="M46.137,6.552c-0.75,-0.636 -1.928,-0.727 -3.146,-0.238h-0.002c-1.281,0.514 -36.261,15.518 -37.685,16.131c-0.259,0.09 -2.521,0.934 -2.288,2.814c0.208,1.695 2.026,2.397 2.248,2.478l8.893,3.045c0.59,1.964 2.765,9.21 3.246,10.758c0.3,0.965 0.789,2.233 1.646,2.494c0.752,0.29 1.5,0.025 1.984,-0.355l5.437,-5.043l8.777,6.845l0.209,0.125c0.596,0.264 1.167,0.396 1.712,0.396c0.421,0 0.825,-0.079 1.211,-0.237c1.315,-0.54 1.841,-1.793 1.896,-1.935l6.556,-34.077c0.4,-1.82 -0.156,-2.746 -0.694,-3.201zM22,32l-3,8l-3,-10l23,-17z"></path></g></g>
</svg></symbol>
<symbol id="linkedin" viewBox="0 0 50 50"><svg xmlns="http://www.w3.org/2000/svg" x="0px" y="0px" width="50" height="50" viewBox="0,0,256,256"
style="fill:#000000;">
<g fill="#ffffff" fill-rule="nonzero" stroke="none" stroke-width="1" stroke-linecap="butt" stroke-linejoin="miter" stroke-miterlimit="10" stroke-dasharray="" stroke-dashoffset="0" font-family="none" font-weight="none" font-size="none" text-anchor="none" style="mix-blend-mode: normal"><g transform="scale(5.12,5.12)"><path d="M41,4h-32c-2.76,0 -5,2.24 -5,5v32c0,2.76 2.24,5 5,5h32c2.76,0 5,-2.24 5,-5v-32c0,-2.76 -2.24,-5 -5,-5zM17,20v19h-6v-19zM11,14.47c0,-1.4 1.2,-2.47 3,-2.47c1.8,0 2.93,1.07 3,2.47c0,1.4 -1.12,2.53 -3,2.53c-1.8,0 -3,-1.13 -3,-2.53zM39,39h-6c0,0 0,-9.26 0,-10c0,-2 -1,-4 -3.5,-4.04h-0.08c-2.42,0 -3.42,2.06 -3.42,4.04c0,0.91 0,10 0,10h-6v-19h6v2.56c0,0 1.93,-2.56 5.81,-2.56c3.97,0 7.19,2.73 7.19,8.26z"></path></g></g>
</svg></symbol>
<symbol id="github" viewBox="0 0 50 50"><svg xmlns="http://www.w3.org/2000/svg" x="0px" y="0px" width="50" height="50" viewBox="0,0,256,256"
style="fill:#000000;">
<g fill="#ffffff" fill-rule="nonzero" stroke="none" stroke-width="1" stroke-linecap="butt" stroke-linejoin="miter" stroke-miterlimit="10" stroke-dasharray="" stroke-dashoffset="0" font-family="none" font-weight="none" font-size="none" text-anchor="none" style="mix-blend-mode: normal"><g transform="scale(5.12,5.12)"><path d="M17.791,46.836c0.711,-0.306 1.209,-1.013 1.209,-1.836v-5.4c0,-0.197 0.016,-0.402 0.041,-0.61c-0.014,0.004 -0.027,0.007 -0.041,0.01c0,0 -3,0 -3.6,0c-1.5,0 -2.8,-0.6 -3.4,-1.8c-0.7,-1.3 -1,-3.5 -2.8,-4.7c-0.3,-0.2 -0.1,-0.5 0.5,-0.5c0.6,0.1 1.9,0.9 2.7,2c0.9,1.1 1.8,2 3.4,2c2.487,0 3.82,-0.125 4.622,-0.555c0.934,-1.389 2.227,-2.445 3.578,-2.445v-0.025c-5.668,-0.182 -9.289,-2.066 -10.975,-4.975c-3.665,0.042 -6.856,0.405 -8.677,0.707c-0.058,-0.327 -0.108,-0.656 -0.151,-0.987c1.797,-0.296 4.843,-0.647 8.345,-0.714c-0.112,-0.276 -0.209,-0.559 -0.291,-0.849c-3.511,-0.178 -6.541,-0.039 -8.187,0.097c-0.02,-0.332 -0.047,-0.663 -0.051,-0.999c1.649,-0.135 4.597,-0.27 8.018,-0.111c-0.079,-0.5 -0.13,-1.011 -0.13,-1.543c0,-1.7 0.6,-3.5 1.7,-5c-0.5,-1.7 -1.2,-5.3 0.2,-6.6c2.7,0 4.6,1.3 5.5,2.1c1.699,-0.701 3.599,-1.101 5.699,-1.101c2.1,0 4,0.4 5.6,1.1c0.9,-0.8 2.8,-2.1 5.5,-2.1c1.5,1.4 0.7,5 0.2,6.6c1.1,1.5 1.7,3.2 1.6,5c0,0.484 -0.045,0.951 -0.11,1.409c3.499,-0.172 6.527,-0.034 8.204,0.102c-0.002,0.337 -0.033,0.666 -0.051,0.999c-1.671,-0.138 -4.775,-0.28 -8.359,-0.089c-0.089,0.336 -0.197,0.663 -0.325,0.98c3.546,0.046 6.665,0.389 8.548,0.689c-0.043,0.332 -0.093,0.661 -0.151,0.987c-1.912,-0.306 -5.171,-0.664 -8.879,-0.682c-1.665,2.878 -5.22,4.755 -10.777,4.974v0.031c2.6,0 5,3.9 5,6.6v5.4c0,0.823 0.498,1.53 1.209,1.836c9.161,-3.032 15.791,-11.672 15.791,-21.836c0,-12.682 -10.317,-23 -23,-23c-12.683,0 -23,10.318 -23,23c0,10.164 6.63,18.804 15.791,21.836z"></path></g></g>
</svg></symbol>
</svg>